<?xml version="1.0" standalone="no"?>
<!DOCTYPE svg PUBLIC "-//W3C//DTD SVG 20010904//EN"
 "http://www.w3.org/TR/2001/REC-SVG-20010904/DTD/svg10.dtd">
<svg version="1.0" xmlns="http://www.w3.org/2000/svg"
 width="512.000000pt" height="512.000000pt" viewBox="0 0 512.000000 512.000000"
 preserveAspectRatio="xMidYMid meet">
<metadata>
Created by potrace 1.14, written by Peter Selinger 2001-2017
</metadata>
<g transform="translate(0.000000,512.000000) scale(0.100000,-0.100000)"
fill="#000000" stroke="none">
<path d="M554 5110 c-28 -11 -78 -65 -86 -92 -3 -13 -6 -241 -7 -508 l-1 -485
-44 -67 c-175 -266 -304 -583 -365 -893 -40 -200 -46 -267 -45 -515 0 -183 3
-241 19 -345 3 -16 7 -43 9 -60 37 -265 165 -623 307 -860 10 -16 27 -46 38
-65 19 -36 131 -195 166 -239 72 -87 140 -164 192 -217 431 -431 953 -681
1563 -751 78 -9 432 -9 515 0 402 43 772 171 1110 382 635 399 1072 1077 1171
1815 26 196 26 554 0 705 -3 17 -8 44 -10 60 -3 17 -9 53 -15 80 -6 28 -13 61
-15 75 -13 62 -52 194 -87 293 -22 60 -39 122 -39 138 0 34 -33 104 -54 116
-8 4 -29 35 -47 68 -64 120 -108 192 -174 285 -362 511 -888 871 -1485 1016
-58 14 -116 28 -130 30 -50 8 -86 14 -120 19 -19 3 -53 8 -75 12 -58 10 -2266
14 -2291 3z"/>
</g>
</svg>
